<svg width="2990" height="1033" viewBox="0 0 2990 1033" fill="none" xmlns="http://www.w3.org/2000/svg">
<path fill-rule="evenodd" clip-rule="evenodd" d="M1452.94 8.73454C1445.77 13.5381 1436.67 18.5691 1432.72 19.9168C1428.77 21.263 1422.38 24.6113 1418.52 27.355C1404.25 37.5012 1393.76 42.2642 1377.66 45.9054C1357.38 50.4908 1339.85 57.2528 1330.13 64.2439C1324.27 68.4553 1321.49 69.5039 1317.68 68.9446C1311.5 68.0362 1287.63 72.0545 1264.36 77.9175C1233.7 85.6408 1138.23 125.836 1138.23 131.018C1138.23 133.816 1123.71 141.72 1105.67 148.741C1086.03 156.382 1080.37 157.667 1050.82 161.206C1026.14 164.16 1019.29 166.265 1018.61 171.095C1018.32 173.075 1016.92 175.094 1015.49 175.582C1006.62 178.609 994.981 184.547 994.981 186.047C994.981 187.021 987.275 191.423 977.856 195.831C963.783 202.415 960.245 204.768 958.003 209.038C953.505 217.606 941.761 227.805 927.243 235.75C905.173 247.83 889.186 258.613 890.042 260.846C890.875 263.016 877.567 269.546 872.313 269.546C868.104 269.546 864.76 274.001 863.684 281.038C863.119 284.736 861.44 288.003 859.355 289.464C856.039 291.789 856.026 291.911 858.901 294.121C860.523 295.369 861.149 296.667 860.293 297.007C852.618 300.042 842.386 307.448 842.386 309.969C842.386 315.308 835.046 321.819 822.256 327.826C813.88 331.758 809.687 334.599 809.687 336.339C809.687 342.185 798.361 357.638 788.982 364.588C783.779 368.444 779.272 372.388 778.969 373.351C778.665 374.314 780.105 377.118 782.17 379.583C786.349 384.574 786.273 391.974 781.972 398.565C779.697 402.054 779.75 402.13 783.757 401.123C789.165 399.765 788.968 401.499 782.862 409.027C780.098 412.437 779.011 414.292 780.448 413.152C783.576 410.668 811.646 395.628 812.163 396.158C812.361 396.362 813.026 399.216 813.639 402.502C814.62 407.761 814.404 408.44 811.831 408.166C806.025 407.549 804.799 408.214 805.296 411.72C806.078 417.226 814.986 417.168 828.3 411.572C840.225 406.558 842.124 407.229 834.211 413.658C829.255 417.684 829.353 417.67 838.883 412.969C848.583 408.185 852.238 408.597 844.586 413.613C842.372 415.065 840.897 416.592 841.312 417.006C842.549 418.245 867.158 405.372 880.776 396.36C887.76 391.741 894.352 387.959 895.427 387.959C900.174 387.959 891.962 537.626 882.005 632.576C875.965 690.162 875.77 691.247 870.219 698.261C863.253 707.063 855.361 723.479 852.207 735.733C849.542 746.082 849.369 746.315 844.407 746.315C838.403 746.315 836.986 743 836.955 728.87C836.939 721.204 836.69 720.462 835.136 723.432C834.146 725.323 832.268 730.962 830.962 735.965C828.164 746.689 828.005 746.903 823.818 745.574C820.313 744.46 819.786 740.264 820.296 717.491L820.538 706.584L818.13 711.874C816.806 714.783 814.855 723.197 813.796 730.571C811.935 743.528 811.725 743.995 807.543 744.483L803.214 744.988L803.727 732.534C804.46 714.672 801.475 718.088 794.744 742.81C793.936 745.776 791.914 745.14 790.203 741.379C789.358 739.52 787.265 737.243 785.552 736.316C781.083 733.896 780.166 732.199 780.017 726.06C779.944 723.061 779.307 719.205 778.603 717.491C777.483 714.763 776.918 715.249 774.076 721.386C772.289 725.242 770.813 729.625 770.794 731.124C770.775 732.623 769.765 733.851 768.549 733.851C766.976 733.851 766.025 730.934 765.257 723.768C764.237 714.228 764.44 713.292 769.027 706.362C772.068 701.767 773.874 697.065 773.874 693.737C773.874 689.513 775.434 686.799 781.549 680.384L789.224 672.335L793.378 676.216C797.883 680.423 803.459 690.25 803.459 693.978C803.459 698.246 813.95 704.665 822.222 705.461C828.629 706.077 830.962 705.536 835.848 702.301C840.863 698.98 842.37 696.541 845.956 685.942C848.275 679.092 850.171 672.17 850.17 670.56C850.17 668.949 848.133 663.326 845.643 658.061C838.722 643.42 837.12 633.294 839.222 617.483C841.882 597.487 838.828 588.487 826.907 581.182C823.432 579.052 820.591 576.598 820.598 575.728C820.604 574.859 822.893 572.592 825.685 570.691C835.022 564.33 841.645 555.573 848.993 539.871C857.339 522.034 867.525 496.731 866.695 495.901C864.817 494.022 852.776 504.388 837.699 520.866C804.127 557.554 801.1 560.492 795.613 561.698C791.105 562.689 789.887 562.259 786.701 558.552L783.011 554.26L777.767 559.347C774.392 562.619 771.624 564.088 770.003 563.466C766.487 562.116 758.892 544.676 747.512 511.826C742.169 496.401 736.929 482.878 735.87 481.775C731.214 476.933 725.604 485.32 725.604 497.119C725.604 508.534 730.693 539.809 733.689 546.8C738.019 556.91 743.543 563.577 750.557 567.157C757.615 570.76 757.444 573.715 750.016 576.493C737.38 581.219 729.192 585.934 727.22 589.617C726.043 591.819 724.737 593.277 724.318 592.856C722.761 591.298 719.376 595.689 719.376 599.268C719.376 602.223 718.554 602.973 715.307 602.973C711.67 602.973 711.31 603.471 711.922 607.647C712.582 612.145 712.384 612.321 706.65 612.321C703.372 612.321 700.691 613.04 700.691 613.918C700.691 614.795 698.863 616.21 696.628 617.059C693.491 618.254 692.957 619.075 694.28 620.671C696.309 623.117 695.034 624.786 691.138 624.786C689.453 624.786 688.647 625.608 689.12 626.842C689.64 628.198 686.137 630.619 678.859 633.933C665.918 639.827 651.546 641.895 623.408 641.912C601.749 641.926 602.655 642.619 602.616 626.031C602.571 607.58 607.622 594.846 617.674 588.067C620.592 586.099 630.924 583.009 643.329 580.393C667.662 575.263 669.175 574.633 670.567 569.04C671.148 566.709 672.894 561.996 674.444 558.568C679.916 546.48 676.732 537.534 666.955 537.534C662.525 537.534 645.707 522.069 642.982 515.489C641.243 511.285 641.319 509.51 643.505 503.429C645.733 497.227 645.772 496.133 643.795 495.027C641.398 493.685 636.85 485.859 636.85 483.079C636.85 482.179 639.762 481.443 643.321 481.443C650.766 481.443 658.791 476.238 662.544 468.976C666.645 461.039 666.144 460.738 650.475 461.718C642.552 462.214 633.619 463.1 630.622 463.688L625.172 464.755L631.615 457.744C639.203 449.484 642.055 444.617 640.645 442.331C640.006 441.3 638.075 442.132 635.511 444.542C633.25 446.667 628.948 449.877 625.95 451.675C620.192 455.129 611.013 456.08 610.093 453.316C608.301 447.939 583.548 449.364 575.378 455.315C567.51 461.045 561.725 459.19 548.526 446.699C544.007 442.422 540.31 439.681 540.31 440.606C540.31 445.133 544.331 451.806 551.384 458.989L559.171 466.918L553.639 471.138C548.667 474.934 547.52 475.199 542.31 473.759C531.644 470.813 496.712 476.459 496.712 481.13C496.712 484.429 506.268 495.316 513.265 499.991C520.447 504.786 521.485 505.026 532.914 504.534C539.551 504.247 544.982 504.221 544.982 504.475C544.982 504.73 543.479 507.89 541.642 511.499C535.387 523.782 520.453 544.519 510.128 555.262C504.462 561.156 499.826 566.622 499.826 567.405C499.826 568.19 498.949 568.719 497.88 568.578C492.629 567.896 489.911 569.231 483.839 575.47C477.781 581.696 474.86 583.065 447.664 592.429C413.228 604.286 400.345 607.066 373.702 608.387C362.997 608.918 341.288 610.765 325.46 612.488C292.731 616.053 280.577 619.848 264.03 631.669C244.107 645.902 217.393 677.858 207.471 699.329C197.794 720.271 199.001 728.235 214.824 747.873C219.313 753.443 224.28 760.534 225.862 763.63C227.444 766.727 231.401 771.419 234.655 774.055L240.57 778.851L236.288 783.192L232.006 787.534L231.902 782.894C231.804 778.533 231.681 778.63 229.836 784.521C227.36 792.429 222.574 799.838 220.999 798.201C220.339 797.515 218.379 792.746 216.643 787.604L213.486 778.256L214.408 789.552L215.33 800.848H211.316C206.444 800.848 204.801 796.862 207.062 790.536C208.549 786.378 208.496 786.269 206.339 789.048C205.059 790.7 203.778 791.752 203.493 791.385C203.208 791.019 201.171 787.564 198.968 783.707C196.763 779.85 193.389 775.292 191.471 773.58L187.981 770.465L190.406 775.208C192.986 780.261 197.75 797.291 197.75 801.461C197.75 805.879 193.52 804.132 191.544 798.9C188.319 790.359 184.646 783.633 181.79 781.032C179.268 778.735 179.065 778.812 179.065 782.053C179.065 783.978 177.698 787.294 176.026 789.421L172.987 793.288L168.262 785.772C165.665 781.638 163.845 777.414 164.217 776.388C164.633 775.239 163.969 774.873 162.498 775.439C160.78 776.098 160.394 777.511 161.132 780.423C163.171 788.452 163.817 805.221 162.201 808.088C160.771 810.623 160.172 810.068 157.272 803.535C155.457 799.442 149.725 791.552 144.534 785.999C134.112 774.851 134.151 776.268 143.939 765.012C146.637 761.908 145.138 762.913 140.459 767.348C133.936 773.527 131.951 774.674 130.856 772.901C128.617 769.275 113.021 783.553 109.692 792.28C107.131 798.99 107.151 801.664 109.87 814.481C111.346 821.444 107.241 821.335 102.896 814.297C99.0076 808.002 98.7273 799.4 102.187 792.59L104.721 787.604L100.719 791.298C94.7832 796.776 91.8683 804.169 91.8683 813.742C91.8683 822.069 91.7516 822.294 86.9479 823.256C84.2417 823.798 81.713 823.924 81.3268 823.538C80.9407 823.151 80.282 818.413 79.8632 813.01C78.9133 800.742 83.0163 788.868 92.242 777.19L98.6183 769.118L91.1521 774.466C75.0113 786.029 65.0257 802.424 61.5658 823.05C61.0271 826.264 59.8156 828.893 58.8736 828.893C57.6995 828.893 57.4489 825.111 58.0748 816.829C58.8051 807.169 60.0975 802.597 64.5663 793.883L70.1454 783.002L63.9746 789.031C56.4072 796.426 51.2999 807.864 50.2131 819.851C49.7631 824.825 48.9207 828.893 48.3414 828.893C47.7622 828.893 45.5854 824.159 43.5036 818.376C34.5503 793.492 41.3563 769.724 65.1456 742.81L72.3751 734.63L63.8251 741.769C40.6338 761.136 29.823 784.19 25.6266 823.228C25.0863 828.253 24.1178 831.758 23.4747 831.018C20.5209 827.625 13.3334 803.755 12.5159 794.629L11.6066 784.488L8.93303 792.278C7.46313 796.563 4.85812 809.183 3.14688 820.324C0.286504 838.925 0.0311418 848.428 0.017128 936.789L0 1033H1495H2990L2989.22 914.976C2988.36 785.812 2988.73 791.152 2978.76 764.66C2975.47 755.91 2959.83 735.216 2958.82 738.263C2958.54 739.112 2958.92 744.428 2959.68 750.078C2960.44 755.728 2960.71 760.699 2960.28 761.126C2959.85 761.553 2958.05 760.688 2956.26 759.205C2954.48 757.723 2955.27 758.954 2958.03 761.944C2961.98 766.237 2963.25 769.258 2964.08 776.322C2965.17 785.619 2965.55 786.161 2969.3 783.788C2973.5 781.13 2974.17 783.921 2970.71 789.675C2968.82 792.82 2967.04 795.689 2966.76 796.05C2966.48 796.41 2964.5 795.061 2962.36 793.051C2956.91 787.934 2957.49 789.88 2964.76 801.134C2968.22 806.491 2971.81 813.889 2972.74 817.572C2973.67 821.257 2975.04 824.652 2975.79 825.116C2976.54 825.58 2977.16 826.62 2977.16 827.427C2977.16 830.948 2973.94 828.182 2966.63 818.376C2962.32 812.592 2956.87 806.106 2954.52 803.964C2950.55 800.33 2950.69 800.897 2956.7 812.408C2962.75 823.988 2962.99 824.923 2960.57 827.593C2956.67 831.908 2953.36 828.416 2954.52 821.226C2955.18 817.173 2954.57 814.266 2952.3 810.586C2949.2 805.567 2944.1 803.872 2942.06 807.181C2941.39 808.27 2940.04 807.937 2938.13 806.212C2935.87 804.163 2935.41 802.163 2936.06 797.152C2936.83 791.186 2936.51 790.466 2931.62 787.215C2925.15 782.903 2923.23 782.835 2920.74 786.825C2917.64 791.795 2916.43 790.501 2916.43 782.212C2916.43 776.266 2915.64 773.748 2913.02 771.305C2908.41 767 2907.46 767.253 2904.44 773.581C2903.01 776.581 2901.37 779.035 2900.79 779.035C2900.21 779.035 2899.35 774.777 2898.88 769.571C2897.92 758.962 2895.93 755.963 2885.37 749.196C2880.11 745.824 2876.57 744.757 2870.63 744.757H2862.8L2872.35 754.495C2881.97 764.309 2891.52 777.875 2891.52 781.725C2891.52 782.95 2888.03 781.232 2883.06 777.553C2878.4 774.114 2869.82 768.798 2863.98 765.74C2858.15 762.681 2854.68 761.092 2856.28 762.206C2890.82 786.261 2895.14 790.692 2900.88 807.91C2906.75 825.546 2912.53 834.91 2921.35 841.033C2934.51 850.184 2943.92 863.29 2937.17 863.083C2935.61 863.035 2931.32 859.174 2927.64 854.5C2919.73 844.48 2904.84 831.729 2895.69 827.139C2888.48 823.524 2888.72 823.834 2900.56 833.495C2905.1 837.204 2912.75 844.871 2917.55 850.534C2929.66 864.819 2924.99 865.023 2908.68 850.922C2894.2 838.405 2883.94 831.353 2869.98 824.329C2857.61 818.108 2852.14 815.989 2853.3 817.874C2854.31 819.512 2851.11 827.335 2849.42 827.335C2848.82 827.335 2847.85 824.39 2847.27 820.791C2845.79 811.528 2844.16 810.196 2834.28 810.196C2823.33 810.196 2814.69 812.796 2810.37 817.394L2806.97 821.015L2814.6 824.195C2829.95 830.594 2836.67 835.583 2849.09 849.799C2856 857.717 2858.11 862.689 2852.38 857.569L2849.06 854.601L2852.19 860.833C2857.1 870.609 2863.49 889.419 2863.47 894.036L2863.46 898.227L2859.19 892.803C2856.85 889.82 2853.27 885.613 2851.24 883.455L2847.56 879.53L2849.82 883.425C2851.06 885.568 2854.01 890.648 2856.37 894.715C2860.23 901.365 2860.4 902.212 2858.01 903.13C2856.02 903.894 2851.64 900.17 2840.64 888.377C2832.56 879.702 2823.7 871.065 2820.97 869.186L2816 865.771L2820.92 871.092C2823.63 874.019 2830.49 882.67 2836.16 890.314C2850.66 909.874 2846.89 910.877 2828.85 892.258C2813.85 876.779 2813.5 876.92 2824.84 893.872C2828.97 900.047 2832.35 905.83 2832.35 906.726C2832.35 910.715 2827.51 907.367 2813.87 893.942C2800.43 880.703 2799.74 880.227 2805.46 888.1C2808.89 892.813 2813.59 899.974 2815.9 904.012L2820.12 911.354L2816.16 912.349C2812.94 913.158 2810.58 911.961 2803.59 905.986C2794.21 897.975 2793.28 894.911 2796.71 883.441C2798.11 878.774 2797.98 876.607 2796.06 872.354C2794.74 869.445 2793.2 865.313 2792.62 863.17C2791.14 857.664 2785.83 846.527 2780.54 837.852C2776.97 831.993 2775.16 830.451 2771.86 830.451C2769.39 830.451 2766.91 829.189 2765.75 827.335C2764.56 825.428 2762.12 824.219 2759.46 824.219C2757.07 824.219 2754.25 823.343 2753.19 822.271C2750.22 819.273 2717.19 816.972 2700.58 818.605C2686.62 819.979 2686.28 819.931 2680.97 815.878C2677.13 812.948 2673.69 811.754 2669.1 811.754C2665.54 811.754 2662.62 811.134 2662.62 810.378C2662.62 809.621 2661.33 808.663 2659.75 808.248C2656.68 807.445 2655.49 799.816 2651.67 756.443C2649.75 734.653 2647.74 721.942 2638.93 675.87C2632.66 643.11 2632.54 641.94 2635.27 638.924C2636.85 637.174 2637.67 634.709 2637.13 633.301C2636.6 631.92 2636.87 629.483 2637.72 627.883C2638.77 625.912 2638.75 624.649 2637.64 623.963C2636.74 623.407 2636.2 621.787 2636.43 620.362C2637.08 616.428 2634.82 613.879 2630.7 613.879C2628.66 613.879 2626.65 613.322 2626.23 612.641C2625.81 611.958 2622.25 597.411 2618.33 580.311C2614.4 563.211 2610.13 546.064 2608.84 542.208C2607.55 538.352 2605.11 523.628 2603.41 509.489C2601.72 495.349 2599.93 481.375 2599.44 478.435L2598.54 473.089L2594.04 481.323C2589.8 489.083 2589.66 489.865 2591.74 494.846C2592.96 497.753 2594.75 505.919 2595.73 512.991C2598.42 532.389 2599.32 536.183 2607.81 564.185C2617.86 597.323 2618.79 603.205 2614.69 607.314C2612.99 609.012 2610.76 612.965 2609.72 616.096C2608.36 620.244 2607.14 621.584 2605.26 621.032C2603.84 620.616 2598.12 619.125 2592.56 617.718C2586.99 616.311 2582.24 614.968 2582 614.736C2581.76 614.503 2582.28 612.447 2583.14 610.168C2584.65 606.206 2584.35 605.847 2576.25 602.01C2566.16 597.231 2565.69 596.702 2562.31 586.348C2560.78 581.637 2558.17 577.293 2556.02 575.886C2554 574.563 2551.49 570.825 2550.43 567.581C2549.38 564.337 2547.56 561.12 2546.39 560.431C2545.22 559.743 2542.79 556.237 2540.98 552.641C2539.18 549.045 2534.98 542.454 2531.66 537.995C2526.94 531.671 2524.38 529.655 2520.01 528.835C2512.4 527.406 2508.49 520.861 2508.47 509.489C2508.46 504.776 2507.74 496.549 2506.87 491.208C2505.71 484.002 2505.78 480.727 2507.16 478.511C2508.73 476.001 2508.08 473.709 2503.08 464.073C2499.82 457.773 2496.01 451.318 2494.63 449.727C2487.14 441.086 2465.74 436.839 2453.42 441.546C2449.65 442.984 2445.33 445.539 2443.8 447.222C2442.28 448.905 2439.39 450.282 2437.38 450.282C2433.54 450.282 2432.56 453.163 2435.43 456.036C2436.66 457.267 2436.66 458.618 2435.43 460.919C2433.4 464.713 2433.19 470.537 2435.07 470.537C2435.81 470.537 2436.08 472.294 2435.67 474.441C2435.26 476.589 2435.78 479.374 2436.82 480.632C2438.35 482.475 2437.91 484.352 2434.58 490.32C2431.2 496.373 2430.83 498.012 2432.56 499.321C2433.72 500.199 2435.58 505.126 2436.7 510.268C2439.88 524.839 2439.18 523.982 2446.99 522.812C2452.78 521.941 2453.97 522.185 2453.97 524.25C2453.97 528.187 2449.06 534.656 2446.74 533.767C2445.58 533.321 2444.63 533.589 2444.63 534.362C2444.63 536.096 2440.05 537.615 2432.78 538.291C2429.75 538.573 2427.09 539.044 2426.87 539.337C2424.93 541.872 2418.16 557.371 2418.16 559.275C2418.16 560.614 2416.53 564.858 2414.54 568.708C2410.81 575.922 2406.52 589.986 2404.92 600.246C2404.01 606.075 2403.99 606.089 2396.4 606.089C2392.03 606.089 2387.89 606.999 2386.66 608.233C2383.42 611.472 2361.41 607.086 2355.36 601.999C2351.76 598.965 2349.76 598.398 2345.2 599.128C2331.93 601.253 2332.83 600.293 2333.24 611.918C2333.45 617.711 2334.12 623.613 2334.74 625.035C2335.72 627.29 2340.98 629.72 2345.74 630.111C2346.59 630.181 2347.73 632.342 2348.28 634.913L2349.28 639.587L2349.5 634.913C2349.62 632.342 2351.06 628.491 2352.7 626.355C2355.33 622.93 2356.2 622.668 2360.06 624.149C2368.73 627.469 2382.35 637.297 2382.35 640.231C2382.35 644.428 2397.09 651.273 2406.13 651.273C2414.65 651.273 2420.03 647.353 2427.51 635.688C2430.25 631.406 2433.03 627.902 2433.69 627.902C2434.34 627.902 2435.25 632.984 2435.72 639.198C2436.5 649.623 2436.2 651.155 2431.9 659.063C2429.34 663.776 2425.7 672.285 2423.81 677.974C2419.73 690.261 2420.72 695.745 2427.26 697.181C2431.45 698.104 2431.49 698.218 2430.96 709.359C2430.67 715.546 2429.67 722.576 2428.74 724.982C2427.33 728.623 2427.57 730.065 2430.17 733.576C2433.15 737.613 2433.2 738.531 2431.27 754.91C2428.45 778.745 2428.5 809.461 2431.37 820.493C2433.42 828.362 2433.42 830.415 2431.37 838.322C2428.53 849.307 2428.53 849.254 2431.4 848.154C2432.68 847.66 2433.73 847.534 2433.73 847.872C2433.73 849.696 2443.37 896.667 2443.93 897.574C2444.3 898.168 2443.55 899.519 2442.28 900.578C2441 901.638 2439.96 903.47 2439.96 904.649C2439.96 907.197 2436.96 907.203 2421.28 904.684L2409.6 902.809L2408.63 893.506C2408.09 888.391 2406.86 882.23 2405.9 879.818C2402.63 871.639 2403.71 865.595 2409.6 859.166C2413.06 855.386 2415.05 851.652 2415.05 848.936C2415.05 846.583 2415.83 844.176 2416.78 843.587C2419.04 842.188 2417.31 828.549 2413.86 820.662C2412.11 816.651 2410.02 814.493 2407.33 813.909C2405.15 813.437 2399.2 811.707 2394.11 810.065C2382.43 806.296 2377.28 806.315 2364.97 810.176C2359.54 811.879 2353.56 813.281 2351.69 813.292C2349.81 813.303 2347.82 814.052 2347.26 814.956C2345.03 818.569 2341.36 815.384 2339.55 808.27L2337.68 800.891L2344.38 793.897C2350.1 787.927 2351.03 786.043 2350.75 781.021C2350.44 775.414 2350.14 775.099 2344.2 774.275C2337 773.276 2332.73 771.179 2326.89 765.763C2324.6 763.636 2322.01 761.896 2321.14 761.896C2317.39 761.896 2307.59 767.377 2307.37 769.596C2306.89 774.541 2306.72 775.189 2305.29 777.475C2304.49 778.76 2304.03 781.716 2304.27 784.044C2304.74 788.534 2297.32 800.947 2292.39 803.905C2289.88 805.414 2289.9 805.671 2292.72 807.857C2296.89 811.083 2299.76 810.791 2304.2 806.69L2307.99 803.185L2306.88 807.08C2306.27 809.222 2304.43 813.625 2302.79 816.866C2299.63 823.147 2298.8 834.307 2301.38 835.904C2302.24 836.434 2302.94 838.442 2302.94 840.368C2302.94 842.292 2304.69 846.244 2306.83 849.148C2308.97 852.052 2310.72 855.693 2310.72 857.24C2310.72 858.788 2311.39 860.054 2312.21 860.054C2314.98 860.054 2321.83 868.173 2320.96 870.434C2320.48 871.685 2320.78 872.259 2321.64 871.729C2323.49 870.582 2323.7 881.743 2321.88 884.613C2321.07 885.9 2318.92 886.235 2315.68 885.586C2310.7 884.589 2309.39 882.872 2312.27 881.093C2313.12 880.566 2314.56 878.597 2315.46 876.716C2316.56 874.435 2315.61 874.984 2312.63 878.362C2310.17 881.147 2306.99 883.425 2305.55 883.425C2301.91 883.425 2302.27 881.968 2307.22 876.699L2311.5 872.142L2306.72 874.565C2304.08 875.897 2301.05 878.047 2299.98 879.34C2298.5 881.122 2296.08 881.476 2289.97 880.8C2278.3 879.507 2277.67 877.953 2285.81 870.629L2292.82 864.328L2284.93 868.301C2280.6 870.487 2276.13 873.382 2275.01 874.734C2273.89 876.087 2271.18 877.193 2269 877.193H2265.02L2268.8 873.047C2272.82 868.63 2270.07 869.484 2264.67 874.325C2262.29 876.458 2260.13 876.962 2256.5 876.235C2253.78 875.691 2251.55 874.571 2251.55 873.745C2251.55 869.892 2263.37 851.729 2269.19 846.646C2273 843.31 2273.94 842.009 2271.46 843.497C2269.14 844.891 2266.92 846.032 2266.55 846.032C2266.17 846.032 2266.21 841.999 2266.63 837.073C2267.06 832.145 2266.82 826.578 2266.1 824.702C2265.18 822.302 2264.78 824.384 2264.75 831.713C2264.7 843.236 2263.44 846.254 2253.64 858.266C2250.08 862.631 2246.85 867.098 2246.46 868.192C2246.07 869.286 2245.18 869.647 2244.48 868.994C2243.78 868.342 2244.44 863.784 2245.93 858.867C2250.59 843.604 2250.45 843.381 2243.51 854.977C2239.8 861.181 2236.36 866.263 2235.87 866.273C2235.38 866.28 2234.88 862.552 2234.76 857.988C2234.56 850.52 2235.18 848.847 2240.94 841.239C2248.33 831.484 2253.99 819.588 2260.16 800.848C2263.12 791.859 2265.99 786.227 2269.1 783.319C2271.62 780.962 2273.04 779.035 2272.26 779.035C2269.27 779.035 2252.11 790.251 2247.36 795.307C2241.94 801.088 2238.33 811.609 2239.79 817.416C2240.92 821.914 2238.99 822.234 2236.34 817.986C2235.27 816.273 2233.65 814.87 2232.74 814.87C2230.06 814.87 2214.23 829.46 2214.15 832.009C2214.1 833.421 2213.19 832.804 2211.85 830.451C2210.3 827.735 2209.6 827.33 2209.57 829.114C2209.52 831.464 2202.29 834.645 2200.67 833.028C2200.29 832.649 2199.36 827.983 2198.61 822.661C2196.73 809.358 2195.5 809.137 2195.5 822.103C2195.5 828.882 2194.69 834.078 2193.35 835.91C2191.41 838.561 2191.11 837.939 2190.28 829.586C2187.41 800.785 2187.37 795.279 2190.01 793.093C2193.18 790.457 2226.24 750.619 2231.32 743.307C2233.37 740.368 2234.16 738.503 2233.1 739.162C2232.03 739.823 2225.1 740.915 2217.69 741.591C2205.49 742.704 2203.9 743.232 2200.72 747.219C2198.79 749.639 2196.39 755.159 2195.37 759.484C2192.82 770.361 2191.73 771.5 2190.83 764.233C2190.2 759.193 2189.36 757.903 2186.45 757.491C2183.54 757.078 2183.21 756.561 2184.7 754.765C2189.68 748.752 2176.8 755.737 2168.09 763.762C2159.62 771.579 2156.02 771.062 2158.4 762.373C2159.3 759.112 2161.08 754.339 2162.37 751.768C2164.65 747.22 2164.54 747.258 2158.45 753.116C2150.7 760.564 2148.07 759.623 2151.3 750.559C2152.58 746.94 2155.41 735.915 2157.58 726.06C2162.38 704.222 2161.9 694.932 2155.23 679.952C2150.92 670.267 2150.43 669.703 2150.39 674.32C2150.36 677.142 2149.24 684.795 2147.89 691.328C2145.02 705.23 2130.34 736.009 2124.19 741.029C2119.07 745.209 2114.6 744.17 2114.32 738.732C2114.13 735.06 2114.03 734.997 2113.43 738.138C2112.87 741.066 2112.06 741.481 2108.58 740.645C2106.29 740.095 2104.18 739.458 2103.9 739.229C2102.81 738.332 2108.78 728.651 2114.23 722.464L2119.98 715.938L2114.56 720.003C2111.58 722.24 2106.86 727.399 2104.05 731.467L2098.96 738.865V732.754C2098.96 728.003 2099.99 725.651 2103.61 722.181C2109.2 716.829 2108.73 715.606 2102.35 718.903C2096.62 721.869 2091.17 728.552 2091.17 732.61C2091.17 734.846 2090.27 735.496 2087.67 735.128C2083.22 734.496 2083.68 728.542 2088.59 723.136L2091.95 719.432L2086.92 721.994C2084.15 723.402 2080.83 726.584 2079.55 729.066C2077.82 732.414 2076.41 733.363 2074.08 732.752C2066.48 730.764 2073.38 716.405 2085.72 708.541C2090 705.816 2090.06 705.653 2086.5 706.598C2084.36 707.169 2079.84 708.956 2076.47 710.57C2073.09 712.186 2070.15 713.334 2069.94 713.122C2069.14 712.328 2066.28 692.356 2066.27 687.528C2066.26 683.098 2067.15 682.032 2073.66 678.642C2081.99 674.3 2081.92 673.465 2073.51 676.981C2070.43 678.267 2067.3 679.318 2066.55 679.318C2064.46 679.318 2054.15 589.047 2047.33 511.047C2044.49 478.511 2044.71 388.048 2047.66 377.832C2049.8 370.428 2050.2 370.018 2055.74 369.558C2063.05 368.952 2066.53 364.116 2061.56 361.46C2055.92 358.44 2059.8 356.41 2069.01 357.561C2074.88 358.295 2082.17 361.078 2092 366.33C2109.18 375.517 2135.11 385.362 2128.15 380.058C2121.64 375.094 2123.03 373.739 2131.01 377.271C2138.66 380.66 2141.99 380.499 2135.55 377.051C2131.89 375.091 2130.25 372.318 2132.82 372.43C2133.47 372.458 2137.85 373.837 2142.56 375.495C2153.02 379.18 2161.75 379.438 2165.02 376.163C2168.82 372.363 2167.95 370.821 2162.02 370.821C2156.88 370.821 2156.57 370.524 2156.57 365.627C2156.57 362.77 2156.96 360.046 2157.43 359.573C2158.32 358.683 2180.26 367.343 2188.49 371.832C2193.05 374.315 2193.02 374.226 2187.32 368.25C2180.47 361.059 2180.06 359.498 2185.38 360.832C2189.64 361.902 2190.56 359.81 2187.1 356.933C2185.9 355.941 2184.49 352.831 2183.97 350.02C2183.42 347.127 2180.65 342.629 2177.58 339.644C2170.63 332.91 2170.64 331.087 2177.59 335.192C2183.93 338.935 2184.77 337.151 2179.15 331.869C2177.01 329.856 2175.26 327.609 2175.26 326.875C2175.26 326.141 2172.85 323.424 2169.9 320.838C2163.47 315.182 2155.01 302.791 2155.01 299.008C2155.01 297.107 2152.56 295.468 2146.89 293.582C2132.54 288.816 2125.66 285.159 2122.39 280.563C2120.64 278.095 2119.2 275.269 2119.2 274.283C2119.2 273.296 2115.17 270.671 2110.25 268.449C2099.16 263.448 2099.64 263.909 2102.24 260.762C2103.95 258.691 2103.99 257.991 2102.43 257.468C2098.88 256.271 2095.84 252.253 2095.84 248.747C2095.84 242.702 2091.68 238.815 2083.02 236.781C2072.87 234.398 2070.79 233.358 2059.73 225.105C2054.85 221.469 2045.39 216.226 2038.71 213.456C2021.46 206.304 1997.75 193.289 1997.75 190.971C1997.75 189.891 1996.33 187.726 1994.6 186.157C1992.44 184.206 1992.01 182.956 1993.22 182.205C1994.2 181.601 1990.2 179.521 1984.3 177.567C1968.78 172.422 1960.98 168.878 1957.48 165.375C1955.78 163.675 1947.16 158.716 1938.31 154.355L1922.23 146.426L1891.86 145.091C1864.45 143.886 1859.84 143.268 1844.37 138.724C1834.95 135.957 1817.44 129.114 1805.45 123.518C1741.84 93.8285 1684.83 78.0951 1637.39 77.1353L1617.26 76.7287L1603.14 67.4099C1595.37 62.2854 1585.51 56.8399 1581.23 55.3068C1576.94 53.7752 1569.94 50.7728 1565.67 48.6367C1555.27 43.4405 1549.62 41.8934 1548.9 44.0466C1548.58 45.0235 1536.99 39.8492 1521.96 32.0199C1493.35 17.1154 1485.58 12.2464 1478.56 4.83002C1475.75 1.86657 1472.43 0 1469.98 0C1467.7 0 1460.34 3.77365 1452.94 8.73454ZM1477 99.5513C1481.67 104.603 1487.24 109.172 1489.37 109.708C1491.5 110.244 1493.25 111.67 1493.25 112.876C1493.25 116.65 1501.22 121.564 1512.92 125.009C1519.89 127.061 1524.42 129.265 1524.82 130.798C1525.6 133.782 1537.2 137.564 1556.31 141.069C1582.61 145.891 1616.27 161.316 1638.15 178.564C1650.81 188.544 1661.2 195.077 1659.16 191.772C1657.72 189.446 1660.1 189.658 1663.79 192.183C1665.48 193.336 1668.97 195.588 1671.54 197.185L1676.21 200.09L1673.23 196.636C1667.28 189.721 1672.63 191.332 1685.94 200.463C1693.43 205.601 1703.77 212.327 1708.91 215.411C1714.05 218.493 1720.35 223.22 1722.92 225.914C1730.52 233.883 1737.11 237.286 1742.86 236.206C1746.96 235.437 1750.15 236.546 1760.02 242.172C1766.68 245.974 1778.23 251.684 1785.68 254.861C1808.21 264.478 1819.44 270.584 1839.75 284.288C1856.91 295.863 1863.07 299.009 1857.32 293.255C1853 288.924 1857.91 290.017 1864.85 294.929C1869 297.867 1875.9 302.247 1880.19 304.663L1887.97 309.057L1884.2 304.881C1877.76 297.763 1882.85 300.27 1895.02 310.212C1901.42 315.439 1909.46 321.134 1912.89 322.868L1919.11 326.02L1915.34 321.933C1913.26 319.685 1912.15 317.846 1912.87 317.846C1913.6 317.846 1922.12 322.053 1931.82 327.195C1941.52 332.336 1950.19 336.543 1951.09 336.543C1951.99 336.543 1960.69 341.155 1970.42 346.792L1988.11 357.041L1989.14 368.215C1989.71 374.362 1992.2 396.918 1994.67 418.342C2008.05 533.975 2013.73 602.142 2015.14 663.772L2015.56 681.725L2008.31 695.712C1999.87 712.005 1996.89 716.369 1995.29 714.772C1993.95 713.434 1998.49 697.009 2002.72 687.888L2005.61 681.655L2000.87 686.392C1998.26 688.997 1993.5 695.658 1990.29 701.194C1986.14 708.337 1983.39 711.408 1980.83 711.776C1977.94 712.189 1977.39 711.72 1978.09 709.439C1980.12 702.845 1986.75 674.03 1986.34 673.613C1986.09 673.362 1984.37 674.217 1982.52 675.512C1980.41 676.995 1977.93 682.028 1975.84 689.109C1972.02 701.988 1969.93 705.514 1967.94 702.373C1967.23 701.262 1966.64 697.372 1966.63 693.73C1966.6 684.652 1964.12 685.379 1962.87 694.835C1962.3 699.084 1961.2 702.962 1960.41 703.451C1958.55 704.601 1954.15 689.796 1954.15 682.384C1954.15 675.621 1956.58 667.871 1960.74 661.4L1963.75 656.726L1959.72 661.4C1954.15 667.841 1952.61 674.493 1952.6 692.026C1952.59 706.025 1952.39 707.018 1949.64 706.299C1946.8 705.555 1944.91 700.639 1942.39 687.417C1941.85 684.588 1937.92 677.05 1933.65 670.666C1924.99 657.709 1919.17 653.52 1902.33 648.124C1889.51 644.016 1888.08 641.736 1881.8 615.437C1879.45 605.583 1875.42 591.027 1872.85 583.093C1870 574.3 1868.55 567.186 1869.13 564.872C1869.65 562.784 1872.82 557.909 1876.17 554.04C1883.08 546.05 1888.89 532.076 1888.78 523.709C1888.73 520.601 1888.31 511.472 1887.83 503.422C1886.98 489.14 1886.78 488.519 1879.56 477.713C1875.49 471.624 1870.22 462.084 1867.83 456.514C1862.81 444.774 1842 404.33 1836.47 395.56C1832.01 388.498 1824.51 384.335 1811.67 381.802C1806.54 380.787 1796.21 377.026 1788.73 373.441C1775.74 367.22 1775.12 366.695 1775.1 361.829C1775.09 357.913 1774.18 356.32 1771.19 354.956C1769.05 353.981 1767.3 352.593 1767.3 351.873C1767.3 351.155 1765.69 350.566 1763.72 350.566C1758.26 350.566 1756.48 347.917 1758.11 342.238C1761.7 329.708 1758.31 307.962 1750.75 295.053C1737.41 272.271 1709.86 258.962 1685.02 263.292C1665.53 266.687 1650.14 276.816 1639.55 293.208C1622.43 319.708 1626.28 356.151 1648.41 377.053L1655.83 384.064L1649.38 376.803C1615.45 338.639 1635.37 280.135 1685.4 270.981C1703.73 267.628 1723.13 274.173 1737.4 288.522C1747.51 298.693 1748.6 302.664 1739.51 296.217C1733.91 292.247 1721.48 288.149 1712.02 287.158C1699.94 285.89 1692.38 288.765 1680.24 299.24C1671.77 306.558 1668.23 311.008 1663.87 319.845C1657.41 332.92 1657.36 333.291 1661.21 340.909C1671.7 361.687 1671.92 362.705 1668.32 375.035C1667.51 377.824 1668.08 378.661 1671.37 379.488C1674.29 380.222 1675.43 381.524 1675.43 384.14C1675.43 386.139 1676.15 388.219 1677.03 388.763C1677.91 389.307 1678.5 390.575 1678.34 391.582C1678.18 392.588 1678.57 394.584 1679.2 396.018C1679.82 397.449 1679.59 400.028 1678.67 401.747C1677.75 403.467 1677.44 406.017 1677.97 407.415C1678.58 408.987 1677.45 411.559 1675.03 414.15C1669.12 420.476 1666.36 426.989 1664.3 439.5C1662.79 448.646 1661.01 452.974 1655.13 461.858C1651.12 467.916 1647.35 474.878 1646.77 477.327C1646.18 479.776 1643.28 485.376 1640.32 489.771C1637.36 494.165 1634.95 498.629 1634.95 499.69C1634.95 500.751 1632.86 502.696 1630.32 504.011C1627.78 505.327 1622.91 510.512 1619.5 515.534C1607.81 532.766 1593.38 542.531 1584.56 539.178C1580.48 537.624 1580.45 537.478 1580.45 521.603C1580.45 512.798 1579.63 496.315 1578.63 484.977C1576.54 461.379 1577.4 457.43 1584.98 455.765C1592.41 454.134 1595.76 455.999 1597.58 462.775C1599.52 469.985 1601.11 471.257 1605.33 468.996C1612.84 464.973 1606.84 449.53 1595.19 442.931C1587.64 438.651 1584.31 438.528 1577.35 442.266C1566.31 448.188 1562.12 464.085 1567.19 480.806C1568.83 486.21 1569.52 495.835 1569.53 513.607C1569.55 535.315 1569.2 538.891 1567.04 539.723C1564.92 540.533 1564.68 542.445 1565.47 551.787C1565.99 557.893 1567.53 565.071 1568.9 567.739C1570.93 571.705 1571.61 581.538 1572.6 621.67C1573.27 648.663 1573.32 681.616 1572.72 694.899C1572.13 708.181 1572.05 719.552 1572.56 720.166C1573.08 720.782 1575.02 720.886 1576.88 720.398C1582.05 719.046 1582.58 709.593 1581.56 637.687L1580.64 573.461L1586.38 571.866C1589.54 570.989 1592.57 570.267 1593.12 570.263C1593.67 570.258 1595.69 576.74 1597.62 584.666C1601.64 601.187 1604.15 606.89 1608.39 609.158C1612.95 611.603 1615.54 611.162 1626.38 606.089C1631.88 603.518 1637.14 601.415 1638.07 601.415C1645.05 601.415 1662.48 581.897 1671.63 563.842C1676.51 554.205 1689.28 535.976 1691.15 535.976C1691.96 535.976 1694.74 532.646 1697.32 528.575C1699.9 524.504 1702.51 521.332 1703.12 521.525C1703.73 521.718 1705.64 526.571 1707.37 532.311C1710.1 541.432 1711.38 543.366 1717.49 547.66C1728.7 555.537 1728.23 558.772 1712.76 580.381C1707.84 587.236 1697.64 604.414 1690.08 618.554C1682.52 632.693 1672.32 649.699 1667.41 656.346C1662.5 662.993 1656.24 673.005 1653.49 678.597C1648.62 688.478 1648.54 689.003 1650.42 697.404C1651.48 702.158 1652.11 706.284 1651.82 706.574C1650.76 707.631 1622.92 714.953 1610.81 717.359C1578.97 723.684 1531.27 727.494 1511.04 725.326L1500.58 724.205L1501.61 706.047C1502.18 696.06 1503.32 687.659 1504.14 687.38C1504.97 687.099 1507.19 684.12 1509.07 680.758C1512.52 674.624 1514.35 673.815 1523.22 674.508C1525.58 674.692 1527.51 674.097 1527.51 673.186C1527.51 672.274 1528.51 671.528 1529.73 671.528C1530.95 671.528 1533.33 669.775 1535.01 667.633C1536.7 665.49 1538.87 663.738 1539.84 663.738C1540.8 663.738 1542.27 661.954 1543.1 659.771C1544.06 657.261 1545.61 655.974 1547.33 656.265C1549.32 656.603 1550.43 655.167 1551.5 650.883C1552.31 647.671 1553.9 645.041 1555.03 645.041C1558.48 645.041 1557.34 640.966 1552.41 635.678C1549.17 632.216 1546.76 630.912 1544.62 631.473C1542.61 632 1541.52 631.515 1541.52 630.093C1541.52 628.888 1542.68 627.902 1544.1 627.902C1546.46 627.902 1546.45 627.656 1544 624.94C1542.24 623.002 1541.89 621.624 1542.98 620.953C1545.65 619.3 1544.9 617.433 1541.13 616.374C1537.91 615.467 1537.85 615.257 1540.38 613.759C1541.9 612.863 1542.67 611.365 1542.09 610.431C1541.52 609.496 1542.34 607.787 1543.91 606.631C1546.7 604.592 1546.7 604.531 1543.89 604.531C1542.3 604.531 1541.44 604.092 1541.98 603.554C1542.51 603.016 1541.88 600.5 1540.57 597.961C1539.25 595.421 1538.56 592.355 1539.02 591.147C1540.04 588.494 1538.15 588.268 1535.68 590.745C1534.32 592.099 1533.96 591.51 1534.21 588.346C1534.38 586.04 1535.58 583.489 1536.86 582.681C1538.84 581.428 1538.78 581.204 1536.46 581.183C1534.96 581.171 1533.73 580.529 1533.73 579.756C1533.73 578.273 1518.53 574.728 1511.94 574.677C1509.8 574.66 1507.53 573.832 1506.9 572.84C1506.06 571.511 1505.75 571.548 1505.73 572.98C1505.72 574.052 1504.66 574.928 1503.37 574.928C1502.09 574.928 1501.04 573.898 1501.04 572.639C1501.04 571.246 1500.12 570.702 1498.7 571.247C1495.56 572.455 1495.76 570.803 1499.38 565.71C1504.39 558.682 1506.44 547.739 1504.41 538.933C1498.04 511.347 1465.94 498.8 1443.8 515.247C1439.08 518.756 1431.46 530.755 1432.98 532.282C1433.36 532.654 1434.54 530.831 1435.62 528.228C1436.7 525.626 1439.88 521.472 1442.7 518.994C1458.51 505.104 1485.4 509.947 1497.04 528.781C1503.36 539.02 1504.41 552.791 1499.58 562.265C1496.25 568.795 1488.5 573.906 1487.31 570.35C1487.01 569.44 1485.69 568.695 1484.39 568.695C1482.74 568.695 1482.36 567.86 1483.13 565.969C1490.77 547.266 1485.61 532.42 1470.01 528.217C1458 524.981 1450.39 528.471 1444.6 539.871C1442.86 543.299 1439.7 547.716 1437.59 549.688C1434.73 552.362 1433.92 554.437 1434.42 557.868C1435.08 562.349 1434.93 562.463 1428.4 562.463C1419.97 562.463 1416.04 557.688 1417.6 549.347C1418.19 546.25 1417.93 543.593 1417 543.017C1416.12 542.471 1415.4 543.24 1415.4 544.724C1415.4 547.018 1414.77 546.854 1411.25 543.648C1408.97 541.571 1407.68 540.857 1408.38 542.065C1409.36 543.757 1408.87 544.051 1406.21 543.355C1403.2 542.568 1403.02 542.772 1404.8 544.96C1406.52 547.082 1406.45 547.325 1404.38 546.549C1400.53 545.109 1401.72 550.438 1406.53 556.154C1408.84 558.898 1410.72 562.091 1410.72 563.248C1410.72 565.305 1416.82 570.923 1420.53 572.291C1421.96 572.815 1421.97 573.441 1420.59 574.909C1419.51 576.059 1417.94 576.313 1416.7 575.537C1413.67 573.647 1410.56 573.399 1411.63 575.133C1412.13 575.951 1411.73 577.612 1410.72 578.823C1409.72 580.033 1409.35 581.755 1409.9 582.649C1410.46 583.544 1409.9 584.276 1408.67 584.276C1407.43 584.276 1404.55 581.822 1402.27 578.823C1397.27 572.27 1393 571.868 1387.22 577.405C1383.13 581.331 1382.9 581.367 1378.91 578.751C1376.66 577.272 1374.66 576.335 1374.47 576.665C1368.01 588.053 1368.13 589.048 1376.51 593.308C1382.86 596.533 1384.38 599.746 1379.08 598.733C1376.24 598.19 1375.14 598.821 1374.47 601.382C1373.76 604.106 1372.63 604.651 1368.52 604.249C1364.1 603.816 1362.36 604.9 1354.92 612.722C1350.23 617.656 1346.76 622.07 1347.22 622.53C1347.69 622.991 1346.22 625.361 1343.97 627.798C1337.41 634.902 1335.98 636.976 1335.98 639.43C1335.98 640.701 1335.27 642.182 1334.4 642.719C1332.09 644.15 1334.13 646.599 1337.63 646.599C1341.18 646.599 1341.22 646.78 1338.85 651.979C1337.85 654.162 1336.1 655.947 1334.95 655.947C1331.47 655.947 1332.39 663.904 1335.98 664.844C1339.4 665.738 1340.26 668.398 1337.15 668.435C1335.85 668.452 1335.98 668.968 1337.54 669.993C1339.59 671.341 1339.6 671.709 1337.59 673.002C1333.75 675.47 1337.23 676.885 1346.22 676.508L1354.76 676.151L1357.92 683.545C1359.67 687.613 1361.61 691.306 1362.25 691.752C1369.58 696.882 1369.86 697.42 1370.95 708.275L1372.06 719.297L1357.52 721.115C1349.53 722.117 1335.28 724.736 1325.86 726.937C1303.02 732.275 1286.57 735.289 1279.93 735.351L1274.48 735.403L1283.37 727.226C1294.92 716.603 1303.64 703.674 1309.48 688.502C1316.19 671.096 1315.9 663.541 1308.05 651.784C1300.73 640.814 1294.53 637.38 1279.82 636.146C1268.26 635.177 1254.54 637.314 1237.43 642.752C1229.9 645.145 1225.6 645.815 1224.36 644.791C1223.15 643.793 1221.47 643.824 1219.5 644.883C1215.92 646.797 1206.25 645.876 1205.47 643.55C1205.17 642.655 1203.41 641.921 1201.56 641.917C1194.22 641.9 1180.32 629.941 1180.29 623.617C1180.28 622.547 1181.95 621.67 1184 621.67C1186.05 621.67 1188.13 620.618 1188.62 619.333C1189.12 618.047 1191.12 616.974 1193.07 616.946C1197.44 616.885 1199.97 614.894 1205.9 606.868C1208.43 603.44 1212.29 598.764 1214.47 596.479C1222.47 588.076 1223.87 586.319 1223.87 584.725C1223.87 583.83 1225.44 582.057 1227.35 580.784C1230.29 578.832 1230.52 578.09 1228.81 576.032C1226.23 572.921 1229.48 566.086 1237.92 556.851C1244.1 550.081 1255.14 528.612 1254.83 523.944C1254.66 521.344 1254.61 521.341 1253.94 523.901C1253.55 525.401 1252.58 526.627 1251.79 526.627C1249.93 526.627 1249.93 526.646 1252.7 518.79C1253.99 515.121 1254.75 511.824 1254.4 511.466C1254.04 511.106 1253.28 512.267 1252.72 514.046C1252.15 515.824 1251.01 517.279 1250.18 517.279C1249.25 517.279 1249.29 516.135 1250.29 514.266C1251.18 512.608 1251.87 510.328 1251.83 509.202C1251.79 508.074 1250.34 509.847 1248.61 513.141C1244.94 520.098 1242.97 519.7 1245.47 512.511C1248.31 504.369 1243.88 509.475 1238.7 520.317C1233.41 531.392 1230.85 532.506 1232.25 523.122L1233.23 516.5L1230.14 523.226C1225.89 532.461 1222.32 544.95 1222.32 550.548C1222.32 555.924 1218.46 560.905 1214.29 560.905C1212.71 560.905 1211.39 561.782 1211.37 562.853C1211.29 565.922 1204.99 569.671 1198.09 570.758C1192.67 571.612 1191.04 571.145 1186.69 567.497C1179.79 561.703 1178.78 553.732 1183.26 540.271C1190.07 519.77 1190.17 496.312 1183.47 485.473C1179.39 478.866 1179.4 472.067 1183.5 466.852C1187.93 461.223 1194.01 461.435 1199.74 467.421C1205.13 473.047 1212.57 473.725 1216.87 468.979C1218.42 467.265 1220.28 465.863 1221 465.863C1222.8 465.863 1227.79 460.73 1228.96 457.677C1229.49 456.304 1231.89 454.955 1234.29 454.679C1238.45 454.202 1238.64 453.842 1238.11 447.238C1237.59 440.733 1237.97 439.946 1244.1 434.711C1249.68 429.954 1250.78 428.02 1251.49 421.699C1252.17 415.643 1252.79 414.468 1254.84 415.317C1262.13 418.338 1262.32 418.186 1261.27 410.274C1259.82 399.445 1257.1 395.267 1239.98 377.601C1220.91 357.926 1210.68 352.124 1195.06 352.124C1183.65 352.124 1173.8 356.125 1163.98 364.747C1157.82 370.165 1157.05 368.809 1161.44 360.241C1169.52 344.452 1184.24 332.034 1200.87 326.98C1230.61 317.94 1262.1 332.288 1275.74 361.097C1280.39 370.931 1280.71 372.692 1280.71 388.771C1280.71 405.17 1280.47 406.43 1275.38 416.765C1269.22 429.286 1258.7 440.519 1247.83 446.177C1243.65 448.355 1240.78 450.17 1241.45 450.209C1243.77 450.346 1254.24 444.352 1260.85 439.098C1295.51 411.558 1295.2 356.415 1260.23 329.999C1222.52 301.504 1168.13 320.04 1154.74 365.956C1152.51 373.586 1150.21 376.377 1128.97 397.118C1107.42 418.161 1105.17 420.911 1099.38 433.143C1095.94 440.427 1089.63 452.697 1085.36 460.409C1076.65 476.146 1073.59 486.908 1076 493.258C1077.25 496.543 1076.49 500.656 1072.18 513.982C1064.89 536.545 1060.85 557.094 1058.04 585.834C1056.74 599.117 1054.95 614.943 1054.07 621.003C1052.97 628.475 1052.96 634.284 1054.03 639.047C1055.83 647.105 1054 656.002 1049.3 661.975C1044.24 668.418 1046.38 684.424 1053.05 689.955C1054.92 691.513 1055.19 692.953 1054.11 695.785C1052.11 701.055 1053.21 702.926 1061.19 707.744C1065.02 710.064 1068.16 712.879 1068.16 714.001C1068.16 716.737 1060.96 720.738 1053.68 722.05C1050.42 722.636 1047.37 724.13 1046.89 725.367C1046.35 726.785 1043.84 727.618 1040.11 727.618C1036.85 727.618 1028.69 728.714 1021.98 730.054C1006.96 733.05 1007.91 732.818 1000.72 735.259C993.593 737.677 992.829 737.176 994.987 731.498C996.466 727.606 996.379 727.369 994.149 729.22C992.781 730.357 990.61 733.321 989.325 735.808C987.255 739.813 979.225 744.757 974.788 744.757C973.904 744.757 973.121 743.18 973.048 741.251C972.934 738.291 972.702 738.453 971.556 742.288C970.078 747.233 967.659 749.371 963.497 749.408C961.668 749.424 960.058 747.083 958.42 742.031C956.063 734.754 956.04 734.734 957.008 740.862C958.532 750.506 958.508 751.391 956.7 752.035C955.772 752.365 954.243 751.038 953.302 749.085C951.611 745.574 951.593 745.581 951.488 749.821C951.417 752.699 950.549 754.106 948.847 754.106C946.66 754.106 946.411 752.445 947.035 742.031C947.807 729.138 951.74 719.161 960.155 708.755L964.428 703.468L958.596 708.922C951.522 715.537 942.04 733.899 942.04 740.979C942.04 748.221 939.52 748.945 937.34 742.333C934.886 734.896 936.428 727.827 942.255 719.778L947.069 713.128L942.342 716.497C935.928 721.067 929.79 728.584 928.601 733.33C928.06 735.483 928.006 740.994 928.479 745.58C929.307 753.621 929.219 753.872 925.957 752.686C924.097 752.012 921.617 749.506 920.446 747.121C918.363 742.883 918.838 739.455 922.931 729.176C923.73 727.171 923.495 727.142 921.273 728.977C919.077 730.791 918.685 730.791 918.697 728.977C918.781 716.958 922.117 636.601 923.411 615.437C927.718 545.05 936.942 473.505 949.126 416.005C951.214 406.15 952.927 397.655 952.932 397.127C952.936 396.599 959.621 392.199 967.786 387.347C975.953 382.497 989.99 373.288 998.983 366.885C1007.97 360.48 1016.26 355.24 1017.4 355.24C1018.54 355.24 1021.21 353.875 1023.33 352.206C1028.08 348.464 1052.46 333.427 1053.78 333.427C1054.3 333.427 1052.72 335.53 1050.26 338.101C1043.23 345.441 1048.11 343.584 1059.99 334.396C1065.95 329.789 1074.96 323.377 1080 320.151C1085.04 316.924 1092.94 311.206 1097.56 307.443C1105.53 300.943 1109.84 299.406 1105.53 304.603C1100.96 310.113 1105.49 307.756 1114.92 299.715C1131.61 285.48 1149.17 273.374 1167.37 263.555C1176.85 258.44 1190.27 250.376 1197.19 245.633C1208.11 238.151 1210.49 237.124 1215.15 237.881C1220.21 238.704 1221.2 238.061 1232.06 226.833C1240.47 218.136 1244.31 215.185 1246.23 215.925C1249.88 217.326 1259.3 210.484 1266.23 201.402C1273.51 191.854 1279.62 186.138 1281.03 187.553C1281.64 188.166 1281.19 190.214 1280.01 192.102C1277.99 195.351 1278.03 195.415 1280.85 193.279C1282.48 192.037 1285.84 189.232 1288.31 187.046C1291.39 184.313 1293.02 183.684 1293.5 185.032C1294.44 187.637 1300.72 183.14 1315.86 169.001C1335.3 150.863 1366.66 133.695 1395.15 125.591C1411.96 120.813 1423.17 115.869 1423.21 113.211C1423.24 111.882 1464.93 90.6703 1468.03 90.4085C1468.29 90.3867 1472.32 94.5 1477 99.5513ZM1431.09 538.442C1431.16 540.257 1431.53 540.627 1432.03 539.385C1432.48 538.26 1432.42 536.915 1431.91 536.398C1431.39 535.881 1431.02 536.8 1431.09 538.442ZM2537.88 614.291C2545.19 623.591 2554.82 632.561 2565.55 640.052C2571.56 644.249 2572.31 644.296 2572.31 640.479C2572.31 637.657 2573.36 637.511 2589.62 638.061C2599.14 638.383 2607.31 639.034 2607.79 639.506C2608.26 639.98 2610.91 640.367 2613.67 640.367C2616.7 640.367 2619.05 641.295 2619.59 642.704C2620.08 643.989 2621.43 645.041 2622.59 645.041C2623.99 645.041 2625.27 648.587 2626.39 655.558C2627.32 661.341 2630.92 681.149 2634.39 699.573C2637.85 717.997 2641.8 742.887 2643.16 754.885C2644.52 766.882 2646.01 778.639 2646.47 781.01L2647.31 785.325L2639.24 782.138C2633.77 779.982 2629.48 779.27 2625.94 779.934C2621.29 780.806 2620.62 780.485 2619.73 776.972C2617.35 767.468 2604.84 763.191 2593.57 768.025C2589.75 769.668 2586.2 770.596 2585.69 770.088C2585.18 769.582 2584.77 770.06 2584.77 771.151C2584.77 772.245 2583.76 772.746 2582.51 772.27C2581.01 771.69 2580.54 772.151 2581.12 773.661C2581.6 774.903 2581.29 775.919 2580.44 775.919C2579.59 775.919 2578.99 777.084 2579.1 778.51C2579.25 780.245 2577.53 781.553 2573.87 782.475C2568.14 783.921 2561.41 790.105 2561.41 793.924C2561.41 796.831 2561.92 796.775 2569.2 793.057C2579.88 787.606 2580.28 788.031 2579.92 804.353C2579.75 812.279 2580.38 822.478 2581.33 827.017C2583.29 836.422 2588.64 846.032 2591.9 846.032C2593.25 846.032 2594.11 847.63 2594.11 850.126C2594.11 855.023 2602.89 870.961 2605.58 870.961C2609.28 870.961 2618.6 881.425 2619.62 886.728C2620.59 891.717 2626.12 897.766 2639.73 908.739C2643.35 911.658 2644.34 914.077 2645.61 923.084C2647.1 933.717 2644.98 958.213 2642.56 958.213C2642 958.213 2636.65 956.164 2630.67 953.658C2619.04 948.786 2575.26 934.842 2571.59 934.842C2568.36 934.842 2567.43 932.483 2569.02 928.302C2570.39 924.689 2567.44 907.959 2564.33 901.754C2562.47 898.045 2562.63 894.706 2564.69 894.017C2567.11 893.212 2563.92 882.123 2560.56 879.667C2558.68 878.292 2557.67 874.029 2556.82 863.856C2555.74 850.938 2555.89 849.74 2558.84 847.351L2562.03 844.776L2558.08 838.782C2551.71 829.133 2546.65 812.317 2546.43 800.069C2546.32 794.07 2545.58 784.429 2544.79 778.645C2543.99 772.862 2543.69 768.128 2544.1 768.128C2544.52 768.128 2547.94 769.619 2551.7 771.441C2559.52 775.228 2562.11 774.591 2572.34 766.36C2580.81 759.548 2583.8 752.724 2581.71 744.957C2580.81 741.619 2579.04 738.029 2577.78 736.981C2575.76 735.301 2575.76 734.683 2577.79 731.778C2579.06 729.966 2580.08 727.763 2580.06 726.881C2580.03 726.001 2575.47 723.248 2569.91 720.763C2560.92 716.745 2559.16 715.193 2554.05 706.77C2550.88 701.56 2546.52 695.703 2544.34 693.757C2540.64 690.443 2540.57 690.083 2543.12 688.103C2546.56 685.431 2546.5 683.263 2542.79 675.079C2541.15 671.462 2538.32 658.141 2536.51 645.475C2534.7 632.811 2532.31 621.046 2531.2 619.333C2528.42 615.029 2526.59 604.531 2528.62 604.531C2529.5 604.531 2533.67 608.923 2537.88 614.291ZM2340.66 643.872C2338.84 645.801 2336.44 648.345 2335.32 649.528C2334.21 650.711 2330.3 654.615 2326.64 658.203C2320 664.704 2319.98 664.739 2323.13 667.591C2324.87 669.164 2326.29 671.255 2326.29 672.235C2326.29 673.313 2328.29 673.815 2331.35 673.504C2334.14 673.222 2337.19 673.538 2338.13 674.206C2339.07 674.876 2340.32 682.35 2340.9 690.818L2341.96 706.214L2337.24 705.269C2330.99 704.02 2331.24 705.43 2337.75 708.15C2341.43 709.69 2346.23 710.062 2354 709.411L2365.02 708.487L2365.85 702.861C2366.3 699.768 2367.14 691.717 2367.71 684.974C2368.48 675.805 2369.47 672.083 2371.65 670.216C2375.72 666.729 2375.3 664.475 2369.87 660.604C2367.29 658.764 2364.19 655.35 2362.98 653.018C2361.78 650.686 2358.28 647.426 2355.22 645.776C2352.16 644.125 2349.65 642.233 2349.65 641.571C2349.65 639.034 2343.83 640.524 2340.66 643.872ZM2364.21 689.056C2363.18 697.839 2362.29 705.551 2362.22 706.195C2362.02 708.258 2346.49 707.519 2345.84 705.416C2345.51 704.346 2344.88 697.026 2344.43 689.15C2343.53 672.857 2342.94 673.572 2357.47 673.267L2366.07 673.086L2364.21 689.056ZM2328.1 679.318C2328.1 681.461 2328.45 682.338 2328.88 681.266C2329.31 680.195 2329.31 678.443 2328.88 677.371C2328.45 676.3 2328.1 677.176 2328.1 679.318ZM2329.53 689.575C2329.61 691.39 2329.97 691.759 2330.47 690.518C2330.92 689.393 2330.86 688.048 2330.35 687.531C2329.83 687.014 2329.46 687.933 2329.53 689.575ZM1493.25 706.584C1493.25 726.905 1494.32 725.658 1478.68 723.511L1471.45 722.52L1471.59 715.331C1471.66 711.377 1472.19 704.668 1472.76 700.422C1473.77 692.836 1473.91 692.669 1480.79 690.837C1493.95 687.336 1493.25 686.456 1493.25 706.584ZM1462.11 707.602V721.863L1444.59 720.852C1434.96 720.297 1423.01 719.839 1418.04 719.836L1409.01 719.828L1409.48 710.997L1409.95 702.166L1426.29 699.394C1435.29 697.869 1445.45 695.952 1448.87 695.137C1462.47 691.898 1462.11 691.555 1462.11 707.602ZM2016.43 701.005C2016.43 705.441 2015.28 710.687 2013.71 713.46C2010.78 718.608 2006.35 720.135 2007.66 715.543C2008.09 714.044 2009.63 708.435 2011.08 703.079C2012.54 697.724 2014.34 693.341 2015.08 693.341C2015.82 693.341 2016.43 696.79 2016.43 701.005ZM1396.71 701.089C1400.14 701.997 1400.66 703.077 1401.07 710.194L1401.54 718.27L1394.07 718.292C1389.95 718.303 1385.01 718.736 1383.09 719.252C1379.72 720.155 1379.58 719.803 1379.58 710.142C1379.58 704.615 1380.06 699.617 1380.64 699.036C1381.65 698.024 1388.39 698.886 1396.71 701.089ZM2552.24 711.259C2556.56 720.621 2556.08 722.55 2548.91 724.702C2545.1 725.842 2542.08 726.02 2541.23 725.154C2540.46 724.367 2540.23 717.913 2540.73 710.81L2541.62 697.898L2545.5 701.462C2547.63 703.423 2550.66 707.831 2552.24 711.259ZM872.802 709.311C872.326 712.097 870.85 721.386 869.523 729.955C868.195 738.525 866.474 746.18 865.697 746.965C860.862 751.863 862.156 724.54 867.332 712.427C871.253 703.253 874.118 701.622 872.802 709.311ZM2979.49 744.757C2983.71 749.042 2987.51 752.547 2987.94 752.547C2988.37 752.547 2985.27 749.042 2981.05 744.757C2976.83 740.472 2973.03 736.967 2972.6 736.967C2972.17 736.967 2975.27 740.472 2979.49 744.757ZM2966.95 765.144C2966.45 765.956 2965.38 766.21 2964.57 765.708C2963.76 765.207 2963.5 764.133 2964 763.322C2964.51 762.51 2965.58 762.256 2966.39 762.758C2967.2 763.259 2967.45 764.333 2966.95 765.144ZM2488.33 778.988C2503.05 794.185 2514.05 818.68 2515.64 839.773C2516.53 851.483 2517.17 853.901 2519.59 854.671C2521.18 855.176 2522.49 856.461 2522.49 857.526C2522.49 858.591 2525.02 864.604 2528.11 870.889C2532.3 879.401 2533.86 884.726 2534.22 891.764C2534.54 897.856 2535.53 901.812 2537.02 902.903C2541.57 906.232 2545.93 916.877 2544.89 922.104C2544.34 924.825 2543.63 927.051 2543.3 927.051C2542.97 927.051 2527.22 923.896 2508.3 920.04C2489.38 916.184 2473.63 913.029 2473.28 913.029C2472.94 913.029 2472.66 911.605 2472.66 909.864C2472.66 908.122 2471.51 906.256 2470.1 905.715C2467.82 904.841 2467.66 902.297 2468.59 882.542C2469.31 867.167 2470.4 858.828 2472.11 855.386C2474.06 851.476 2474.22 849.609 2472.85 846.596C2470.16 840.697 2470.66 809.274 2473.6 799.24C2474.97 794.555 2476.41 787.215 2476.8 782.93C2477.6 774.113 2478.34 771.244 2479.81 771.244C2480.37 771.244 2484.21 774.73 2488.33 778.988ZM128.592 783.469C126.579 787.458 124.097 794.762 123.077 799.699C121.068 809.428 119.046 810.101 117.447 801.572C115.961 793.643 117.758 786.671 123.199 779.268C126.999 774.097 128.472 773.077 130.139 774.462C131.895 775.919 131.632 777.45 128.592 783.469ZM137.588 787.215C141.396 797.816 142.011 800.848 140.351 800.848C139.497 800.848 138.494 799.62 138.12 798.121C137.197 794.396 138.347 802.842 139.554 808.638C140.75 814.384 136.871 815.24 134.252 809.807C132.594 806.363 132.561 806.377 132.459 810.586C132.392 813.309 131.501 814.87 130.017 814.87C128.209 814.87 127.681 812.825 127.681 805.805C127.681 796.27 131.512 780.593 133.841 780.593C134.593 780.593 136.28 783.573 137.588 787.215ZM242.906 787.696C242.906 791.423 242.195 793.057 240.57 793.057C238.962 793.057 238.235 791.442 238.235 787.864C238.235 785.007 238.683 782.222 239.23 781.674C241.217 779.686 242.906 782.453 242.906 787.696ZM182.024 801.237C182.205 808.001 180.355 808.812 177.759 803.112C175.521 798.2 175.52 797.442 177.726 791.99L179.503 787.604L180.686 791.499C181.337 793.642 181.938 798.024 182.024 801.237ZM2647.67 790.848C2648.19 792.203 2648.61 796.216 2648.61 799.763C2648.61 806.184 2648.6 806.198 2646.06 802.571C2644.66 800.567 2639.58 797.097 2634.77 794.858L2626.03 790.789L2635.38 789.848C2640.51 789.33 2645.17 788.79 2645.72 788.645C2646.27 788.502 2647.15 789.492 2647.67 790.848ZM2937.49 808.707C2938.52 810.367 2935.66 814.87 2933.58 814.87C2932.95 814.87 2932.77 813.117 2933.18 810.975C2933.96 806.901 2935.79 805.939 2937.49 808.707ZM2878.15 834.987C2882.48 839.508 2882.48 839.525 2879.19 841.29C2877.37 842.263 2875.28 842.685 2874.53 842.225C2873.79 841.766 2873.28 842.61 2873.4 844.101C2873.51 845.591 2872.56 846.811 2871.27 846.811C2868.9 846.811 2868.57 841.635 2870.47 833.957C2871.61 829.356 2872.93 829.532 2878.15 834.987ZM2218.85 863.17C2218.85 864.027 2218.15 864.728 2217.3 864.728C2216.44 864.728 2215.74 864.027 2215.74 863.17C2215.74 862.313 2216.44 861.612 2217.3 861.612C2218.15 861.612 2218.85 862.313 2218.85 863.17ZM2375.42 867.044C2378.41 870.032 2381.54 874.284 2382.38 876.494C2384.16 881.18 2384.38 894.347 2382.71 896.795C2381.9 897.99 2376.16 897.803 2362.88 896.149C2352.61 894.866 2343.97 893.642 2343.68 893.427C2343.4 893.212 2344.45 889.083 2346.02 884.251C2348.13 877.746 2350.14 874.67 2353.77 872.407C2356.46 870.724 2359.81 867.608 2361.2 865.479C2364.69 860.159 2369.02 860.635 2375.42 867.044ZM2868.52 876.578C2876.92 885.639 2881.75 894.332 2878.4 894.332C2877.13 894.332 2875.33 893.104 2874.39 891.605C2872.92 889.252 2872.81 889.358 2873.64 892.384C2874.17 894.312 2873.96 895.89 2873.17 895.89C2872.39 895.89 2869.26 889.93 2866.22 882.646C2863.19 875.362 2860.97 869.403 2861.29 869.403C2861.61 869.403 2864.86 872.631 2868.52 876.578ZM2396.1 886.152C2396.88 887.651 2397.98 891.509 2398.56 894.721C2399.6 900.46 2399.53 900.564 2394.71 900.564C2390.87 900.564 2390.01 900.025 2390.75 898.099C2391.27 896.744 2391.69 892.888 2391.69 889.53C2391.69 883.111 2393.73 881.551 2396.1 886.152ZM2737.02 915.861C2741 922.943 2741.63 930.27 2739.34 942.478C2736.77 956.111 2729.37 959.571 2699.88 960.931L2681.74 961.768L2680.68 956.145C2680.1 953.052 2678.74 949.623 2677.66 948.525C2671.41 942.194 2667.3 933.748 2667.3 927.251V920.383L2675.58 921.238C2683.31 922.037 2683.86 921.871 2683.75 918.73C2683.62 914.579 2689.22 913.323 2692.15 916.849C2694.66 919.876 2698.27 919.962 2699.4 917.019C2700.39 914.42 2707.27 912.633 2715.82 912.751C2720.63 912.817 2721.79 912.27 2721.79 909.945C2721.79 902.658 2731.78 906.539 2737.02 915.861ZM2801.21 916.05C2801.21 917.619 2795.5 919.269 2794.29 918.053C2793.81 917.575 2793.44 914.671 2793.47 911.6L2793.52 906.017L2797.36 910.389C2799.48 912.793 2801.21 915.341 2801.21 916.05ZM2788.63 915.981C2791.43 919.917 2791.53 920.613 2789.4 921.43C2786.73 922.458 2780.96 919.962 2780.96 917.776C2780.96 915.211 2782.85 911.471 2784.14 911.471C2784.85 911.471 2786.87 913.501 2788.63 915.981ZM2763.84 930.957C2763.84 932.818 2749.81 941.579 2748.66 940.434C2748.23 940 2749.01 936.797 2750.41 933.316C2751.8 929.836 2752.94 925.57 2752.94 923.837C2752.94 920.903 2753.31 920.986 2758.39 925.037C2761.38 927.43 2763.84 930.094 2763.84 930.957ZM2662.46 950.109C2664.82 961.45 2664.87 961.329 2658.64 961.329H2653.09L2654.18 953.928C2655.62 944.128 2657.74 938.653 2659.4 940.43C2660.14 941.213 2661.51 945.569 2662.46 950.109Z" fill="black"/>
</svg>
